<mxfile host="app.diagrams.net" modified="2023-11-15T13:49:04.755Z" agent="Mozilla/5.0 (Windows NT 10.0; Win64; x64) AppleWebKit/537.36 (KHTML, like Gecko) Chrome/119.0.0.0 Safari/537.36" etag="rHQJPXWaJshB5EiGY774" version="22.1.1" type="device" pages="7">
  <diagram id="C5RBs43oDa-KdzZeNtuy" name="BTH3">
    <mxGraphModel dx="1290" dy="534" grid="1" gridSize="10" guides="1" tooltips="1" connect="1" arrows="1" fold="1" page="1" pageScale="1" pageWidth="827" pageHeight="1169" math="0" shadow="0">
      <root>
        <mxCell id="WIyWlLk6GJQsqaUBKTNV-0" />
        <mxCell id="WIyWlLk6GJQsqaUBKTNV-1" parent="WIyWlLk6GJQsqaUBKTNV-0" />
        <mxCell id="3C0HAdlZnDJE5P8_v5dr-2" style="edgeStyle=orthogonalEdgeStyle;rounded=0;orthogonalLoop=1;jettySize=auto;html=1;exitX=0.5;exitY=1;exitDx=0;exitDy=0;entryX=0.5;entryY=0;entryDx=0;entryDy=0;" parent="WIyWlLk6GJQsqaUBKTNV-1" source="3C0HAdlZnDJE5P8_v5dr-0" target="3C0HAdlZnDJE5P8_v5dr-1" edge="1">
          <mxGeometry relative="1" as="geometry" />
        </mxCell>
        <mxCell id="3C0HAdlZnDJE5P8_v5dr-0" value="Start" style="ellipse;whiteSpace=wrap;html=1;" parent="WIyWlLk6GJQsqaUBKTNV-1" vertex="1">
          <mxGeometry x="40" y="100" width="120" height="80" as="geometry" />
        </mxCell>
        <mxCell id="3C0HAdlZnDJE5P8_v5dr-4" style="edgeStyle=orthogonalEdgeStyle;rounded=0;orthogonalLoop=1;jettySize=auto;html=1;exitX=0.5;exitY=1;exitDx=0;exitDy=0;" parent="WIyWlLk6GJQsqaUBKTNV-1" source="3C0HAdlZnDJE5P8_v5dr-1" target="3C0HAdlZnDJE5P8_v5dr-3" edge="1">
          <mxGeometry relative="1" as="geometry" />
        </mxCell>
        <mxCell id="3C0HAdlZnDJE5P8_v5dr-1" value="a,b,c,max" style="rounded=0;whiteSpace=wrap;html=1;" parent="WIyWlLk6GJQsqaUBKTNV-1" vertex="1">
          <mxGeometry x="40" y="230" width="120" height="60" as="geometry" />
        </mxCell>
        <mxCell id="3C0HAdlZnDJE5P8_v5dr-5" style="edgeStyle=orthogonalEdgeStyle;rounded=0;orthogonalLoop=1;jettySize=auto;html=1;" parent="WIyWlLk6GJQsqaUBKTNV-1" source="3C0HAdlZnDJE5P8_v5dr-3" target="3C0HAdlZnDJE5P8_v5dr-6" edge="1">
          <mxGeometry relative="1" as="geometry">
            <mxPoint x="240" y="380" as="targetPoint" />
          </mxGeometry>
        </mxCell>
        <mxCell id="3C0HAdlZnDJE5P8_v5dr-3" value="max=a" style="shape=parallelogram;perimeter=parallelogramPerimeter;whiteSpace=wrap;html=1;fixedSize=1;" parent="WIyWlLk6GJQsqaUBKTNV-1" vertex="1">
          <mxGeometry x="40" y="350" width="120" height="60" as="geometry" />
        </mxCell>
        <mxCell id="3C0HAdlZnDJE5P8_v5dr-11" style="edgeStyle=orthogonalEdgeStyle;rounded=0;orthogonalLoop=1;jettySize=auto;html=1;" parent="WIyWlLk6GJQsqaUBKTNV-1" source="3C0HAdlZnDJE5P8_v5dr-6" target="3C0HAdlZnDJE5P8_v5dr-10" edge="1">
          <mxGeometry relative="1" as="geometry" />
        </mxCell>
        <mxCell id="3C0HAdlZnDJE5P8_v5dr-15" value="false" style="edgeLabel;html=1;align=center;verticalAlign=middle;resizable=0;points=[];" parent="3C0HAdlZnDJE5P8_v5dr-11" vertex="1" connectable="0">
          <mxGeometry x="-0.059" y="-2" relative="1" as="geometry">
            <mxPoint as="offset" />
          </mxGeometry>
        </mxCell>
        <mxCell id="3C0HAdlZnDJE5P8_v5dr-13" style="edgeStyle=orthogonalEdgeStyle;rounded=0;orthogonalLoop=1;jettySize=auto;html=1;exitX=0.5;exitY=0;exitDx=0;exitDy=0;entryX=0;entryY=0.5;entryDx=0;entryDy=0;" parent="WIyWlLk6GJQsqaUBKTNV-1" source="3C0HAdlZnDJE5P8_v5dr-6" target="3C0HAdlZnDJE5P8_v5dr-7" edge="1">
          <mxGeometry relative="1" as="geometry">
            <mxPoint x="290" y="310" as="targetPoint" />
          </mxGeometry>
        </mxCell>
        <mxCell id="3C0HAdlZnDJE5P8_v5dr-14" value="true" style="edgeLabel;html=1;align=center;verticalAlign=middle;resizable=0;points=[];" parent="3C0HAdlZnDJE5P8_v5dr-13" vertex="1" connectable="0">
          <mxGeometry x="-0.4545" y="1" relative="1" as="geometry">
            <mxPoint x="-1" y="1" as="offset" />
          </mxGeometry>
        </mxCell>
        <mxCell id="3C0HAdlZnDJE5P8_v5dr-6" value="max=b" style="rhombus;whiteSpace=wrap;html=1;" parent="WIyWlLk6GJQsqaUBKTNV-1" vertex="1">
          <mxGeometry x="200" y="340" width="80" height="80" as="geometry" />
        </mxCell>
        <mxCell id="3C0HAdlZnDJE5P8_v5dr-7" value="max=b" style="rounded=0;whiteSpace=wrap;html=1;" parent="WIyWlLk6GJQsqaUBKTNV-1" vertex="1">
          <mxGeometry x="320" y="280" width="120" height="60" as="geometry" />
        </mxCell>
        <mxCell id="3C0HAdlZnDJE5P8_v5dr-22" style="edgeStyle=orthogonalEdgeStyle;rounded=0;orthogonalLoop=1;jettySize=auto;html=1;exitX=1;exitY=0.5;exitDx=0;exitDy=0;entryX=0.5;entryY=1;entryDx=0;entryDy=0;" parent="WIyWlLk6GJQsqaUBKTNV-1" source="3C0HAdlZnDJE5P8_v5dr-10" target="3C0HAdlZnDJE5P8_v5dr-17" edge="1">
          <mxGeometry relative="1" as="geometry" />
        </mxCell>
        <mxCell id="3C0HAdlZnDJE5P8_v5dr-23" value="false" style="edgeLabel;html=1;align=center;verticalAlign=middle;resizable=0;points=[];" parent="3C0HAdlZnDJE5P8_v5dr-22" vertex="1" connectable="0">
          <mxGeometry x="0.3218" y="1" relative="1" as="geometry">
            <mxPoint as="offset" />
          </mxGeometry>
        </mxCell>
        <mxCell id="3C0HAdlZnDJE5P8_v5dr-26" style="edgeStyle=orthogonalEdgeStyle;rounded=0;orthogonalLoop=1;jettySize=auto;html=1;" parent="WIyWlLk6GJQsqaUBKTNV-1" source="3C0HAdlZnDJE5P8_v5dr-10" edge="1">
          <mxGeometry relative="1" as="geometry">
            <mxPoint x="530" y="480" as="targetPoint" />
          </mxGeometry>
        </mxCell>
        <mxCell id="3C0HAdlZnDJE5P8_v5dr-27" style="edgeStyle=orthogonalEdgeStyle;rounded=0;orthogonalLoop=1;jettySize=auto;html=1;exitX=0.5;exitY=1;exitDx=0;exitDy=0;entryX=0;entryY=0.5;entryDx=0;entryDy=0;" parent="WIyWlLk6GJQsqaUBKTNV-1" source="3C0HAdlZnDJE5P8_v5dr-10" target="3C0HAdlZnDJE5P8_v5dr-16" edge="1">
          <mxGeometry relative="1" as="geometry" />
        </mxCell>
        <mxCell id="3C0HAdlZnDJE5P8_v5dr-28" value="true" style="edgeLabel;html=1;align=center;verticalAlign=middle;resizable=0;points=[];" parent="3C0HAdlZnDJE5P8_v5dr-27" vertex="1" connectable="0">
          <mxGeometry x="-0.3867" y="-1" relative="1" as="geometry">
            <mxPoint as="offset" />
          </mxGeometry>
        </mxCell>
        <mxCell id="3C0HAdlZnDJE5P8_v5dr-10" value="max=c" style="rhombus;whiteSpace=wrap;html=1;" parent="WIyWlLk6GJQsqaUBKTNV-1" vertex="1">
          <mxGeometry x="490" y="340" width="80" height="80" as="geometry" />
        </mxCell>
        <mxCell id="3C0HAdlZnDJE5P8_v5dr-30" style="edgeStyle=orthogonalEdgeStyle;rounded=0;orthogonalLoop=1;jettySize=auto;html=1;exitX=1;exitY=0.5;exitDx=0;exitDy=0;entryX=1;entryY=0.5;entryDx=0;entryDy=0;" parent="WIyWlLk6GJQsqaUBKTNV-1" source="3C0HAdlZnDJE5P8_v5dr-16" target="3C0HAdlZnDJE5P8_v5dr-17" edge="1">
          <mxGeometry relative="1" as="geometry">
            <Array as="points">
              <mxPoint x="770" y="470" />
              <mxPoint x="770" y="250" />
            </Array>
          </mxGeometry>
        </mxCell>
        <mxCell id="3C0HAdlZnDJE5P8_v5dr-16" value="max=c" style="rounded=0;whiteSpace=wrap;html=1;" parent="WIyWlLk6GJQsqaUBKTNV-1" vertex="1">
          <mxGeometry x="630" y="440" width="120" height="60" as="geometry" />
        </mxCell>
        <mxCell id="3C0HAdlZnDJE5P8_v5dr-19" value="" style="edgeStyle=orthogonalEdgeStyle;rounded=0;orthogonalLoop=1;jettySize=auto;html=1;" parent="WIyWlLk6GJQsqaUBKTNV-1" source="3C0HAdlZnDJE5P8_v5dr-17" target="3C0HAdlZnDJE5P8_v5dr-18" edge="1">
          <mxGeometry relative="1" as="geometry" />
        </mxCell>
        <mxCell id="3C0HAdlZnDJE5P8_v5dr-17" value="max" style="shape=parallelogram;perimeter=parallelogramPerimeter;whiteSpace=wrap;html=1;fixedSize=1;" parent="WIyWlLk6GJQsqaUBKTNV-1" vertex="1">
          <mxGeometry x="630" y="220" width="120" height="60" as="geometry" />
        </mxCell>
        <mxCell id="3C0HAdlZnDJE5P8_v5dr-18" value="End" style="ellipse;whiteSpace=wrap;html=1;" parent="WIyWlLk6GJQsqaUBKTNV-1" vertex="1">
          <mxGeometry x="630" y="100" width="120" height="80" as="geometry" />
        </mxCell>
      </root>
    </mxGraphModel>
  </diagram>
  <diagram id="M6daubDDDbFlTK0WhZlX" name="BT1">
    <mxGraphModel dx="1290" dy="534" grid="1" gridSize="10" guides="1" tooltips="1" connect="1" arrows="1" fold="1" page="1" pageScale="1" pageWidth="827" pageHeight="1169" math="0" shadow="0">
      <root>
        <mxCell id="0" />
        <mxCell id="1" parent="0" />
        <mxCell id="yk9fj5srVQRX8JYOTvT8-1" style="edgeStyle=orthogonalEdgeStyle;rounded=0;orthogonalLoop=1;jettySize=auto;html=1;exitX=0.5;exitY=1;exitDx=0;exitDy=0;entryX=0.5;entryY=0;entryDx=0;entryDy=0;" parent="1" source="yk9fj5srVQRX8JYOTvT8-2" target="yk9fj5srVQRX8JYOTvT8-4" edge="1">
          <mxGeometry relative="1" as="geometry" />
        </mxCell>
        <mxCell id="yk9fj5srVQRX8JYOTvT8-2" value="Start" style="ellipse;whiteSpace=wrap;html=1;" parent="1" vertex="1">
          <mxGeometry x="40" y="100" width="120" height="80" as="geometry" />
        </mxCell>
        <mxCell id="yk9fj5srVQRX8JYOTvT8-3" style="edgeStyle=orthogonalEdgeStyle;rounded=0;orthogonalLoop=1;jettySize=auto;html=1;exitX=0.5;exitY=1;exitDx=0;exitDy=0;" parent="1" source="yk9fj5srVQRX8JYOTvT8-4" target="yk9fj5srVQRX8JYOTvT8-6" edge="1">
          <mxGeometry relative="1" as="geometry" />
        </mxCell>
        <mxCell id="yk9fj5srVQRX8JYOTvT8-4" value="a,b,c,min" style="rounded=0;whiteSpace=wrap;html=1;" parent="1" vertex="1">
          <mxGeometry x="40" y="230" width="120" height="60" as="geometry" />
        </mxCell>
        <mxCell id="yk9fj5srVQRX8JYOTvT8-5" style="edgeStyle=orthogonalEdgeStyle;rounded=0;orthogonalLoop=1;jettySize=auto;html=1;" parent="1" source="yk9fj5srVQRX8JYOTvT8-6" target="yk9fj5srVQRX8JYOTvT8-11" edge="1">
          <mxGeometry relative="1" as="geometry">
            <mxPoint x="240" y="380" as="targetPoint" />
          </mxGeometry>
        </mxCell>
        <mxCell id="yk9fj5srVQRX8JYOTvT8-6" value="min=a" style="shape=parallelogram;perimeter=parallelogramPerimeter;whiteSpace=wrap;html=1;fixedSize=1;" parent="1" vertex="1">
          <mxGeometry x="40" y="350" width="120" height="60" as="geometry" />
        </mxCell>
        <mxCell id="yk9fj5srVQRX8JYOTvT8-7" style="edgeStyle=orthogonalEdgeStyle;rounded=0;orthogonalLoop=1;jettySize=auto;html=1;" parent="1" source="yk9fj5srVQRX8JYOTvT8-11" target="yk9fj5srVQRX8JYOTvT8-18" edge="1">
          <mxGeometry relative="1" as="geometry" />
        </mxCell>
        <mxCell id="yk9fj5srVQRX8JYOTvT8-8" value="false" style="edgeLabel;html=1;align=center;verticalAlign=middle;resizable=0;points=[];" parent="yk9fj5srVQRX8JYOTvT8-7" vertex="1" connectable="0">
          <mxGeometry x="-0.059" y="-2" relative="1" as="geometry">
            <mxPoint as="offset" />
          </mxGeometry>
        </mxCell>
        <mxCell id="yk9fj5srVQRX8JYOTvT8-9" style="edgeStyle=orthogonalEdgeStyle;rounded=0;orthogonalLoop=1;jettySize=auto;html=1;exitX=0.5;exitY=0;exitDx=0;exitDy=0;entryX=0;entryY=0.5;entryDx=0;entryDy=0;" parent="1" source="yk9fj5srVQRX8JYOTvT8-11" target="yk9fj5srVQRX8JYOTvT8-12" edge="1">
          <mxGeometry relative="1" as="geometry">
            <mxPoint x="290" y="310" as="targetPoint" />
          </mxGeometry>
        </mxCell>
        <mxCell id="yk9fj5srVQRX8JYOTvT8-10" value="true" style="edgeLabel;html=1;align=center;verticalAlign=middle;resizable=0;points=[];" parent="yk9fj5srVQRX8JYOTvT8-9" vertex="1" connectable="0">
          <mxGeometry x="-0.4545" y="1" relative="1" as="geometry">
            <mxPoint x="-1" y="1" as="offset" />
          </mxGeometry>
        </mxCell>
        <mxCell id="yk9fj5srVQRX8JYOTvT8-11" value="min=b" style="rhombus;whiteSpace=wrap;html=1;" parent="1" vertex="1">
          <mxGeometry x="200" y="340" width="80" height="80" as="geometry" />
        </mxCell>
        <mxCell id="yk9fj5srVQRX8JYOTvT8-12" value="min=b" style="rounded=0;whiteSpace=wrap;html=1;" parent="1" vertex="1">
          <mxGeometry x="320" y="280" width="120" height="60" as="geometry" />
        </mxCell>
        <mxCell id="yk9fj5srVQRX8JYOTvT8-13" style="edgeStyle=orthogonalEdgeStyle;rounded=0;orthogonalLoop=1;jettySize=auto;html=1;exitX=1;exitY=0.5;exitDx=0;exitDy=0;entryX=0.5;entryY=1;entryDx=0;entryDy=0;" parent="1" source="yk9fj5srVQRX8JYOTvT8-18" target="yk9fj5srVQRX8JYOTvT8-22" edge="1">
          <mxGeometry relative="1" as="geometry" />
        </mxCell>
        <mxCell id="yk9fj5srVQRX8JYOTvT8-14" value="false" style="edgeLabel;html=1;align=center;verticalAlign=middle;resizable=0;points=[];" parent="yk9fj5srVQRX8JYOTvT8-13" vertex="1" connectable="0">
          <mxGeometry x="0.3218" y="1" relative="1" as="geometry">
            <mxPoint as="offset" />
          </mxGeometry>
        </mxCell>
        <mxCell id="yk9fj5srVQRX8JYOTvT8-15" style="edgeStyle=orthogonalEdgeStyle;rounded=0;orthogonalLoop=1;jettySize=auto;html=1;" parent="1" source="yk9fj5srVQRX8JYOTvT8-18" edge="1">
          <mxGeometry relative="1" as="geometry">
            <mxPoint x="530" y="480" as="targetPoint" />
          </mxGeometry>
        </mxCell>
        <mxCell id="yk9fj5srVQRX8JYOTvT8-16" style="edgeStyle=orthogonalEdgeStyle;rounded=0;orthogonalLoop=1;jettySize=auto;html=1;exitX=0.5;exitY=1;exitDx=0;exitDy=0;entryX=0;entryY=0.5;entryDx=0;entryDy=0;" parent="1" source="yk9fj5srVQRX8JYOTvT8-18" target="yk9fj5srVQRX8JYOTvT8-20" edge="1">
          <mxGeometry relative="1" as="geometry" />
        </mxCell>
        <mxCell id="yk9fj5srVQRX8JYOTvT8-17" value="true" style="edgeLabel;html=1;align=center;verticalAlign=middle;resizable=0;points=[];" parent="yk9fj5srVQRX8JYOTvT8-16" vertex="1" connectable="0">
          <mxGeometry x="-0.3867" y="-1" relative="1" as="geometry">
            <mxPoint as="offset" />
          </mxGeometry>
        </mxCell>
        <mxCell id="yk9fj5srVQRX8JYOTvT8-18" value="min=c" style="rhombus;whiteSpace=wrap;html=1;" parent="1" vertex="1">
          <mxGeometry x="490" y="340" width="80" height="80" as="geometry" />
        </mxCell>
        <mxCell id="yk9fj5srVQRX8JYOTvT8-19" style="edgeStyle=orthogonalEdgeStyle;rounded=0;orthogonalLoop=1;jettySize=auto;html=1;exitX=1;exitY=0.5;exitDx=0;exitDy=0;entryX=1;entryY=0.5;entryDx=0;entryDy=0;" parent="1" source="yk9fj5srVQRX8JYOTvT8-20" target="yk9fj5srVQRX8JYOTvT8-22" edge="1">
          <mxGeometry relative="1" as="geometry">
            <Array as="points">
              <mxPoint x="770" y="470" />
              <mxPoint x="770" y="250" />
            </Array>
          </mxGeometry>
        </mxCell>
        <mxCell id="yk9fj5srVQRX8JYOTvT8-20" value="min=c" style="rounded=0;whiteSpace=wrap;html=1;" parent="1" vertex="1">
          <mxGeometry x="630" y="440" width="120" height="60" as="geometry" />
        </mxCell>
        <mxCell id="yk9fj5srVQRX8JYOTvT8-21" value="" style="edgeStyle=orthogonalEdgeStyle;rounded=0;orthogonalLoop=1;jettySize=auto;html=1;" parent="1" source="yk9fj5srVQRX8JYOTvT8-22" target="yk9fj5srVQRX8JYOTvT8-23" edge="1">
          <mxGeometry relative="1" as="geometry" />
        </mxCell>
        <mxCell id="yk9fj5srVQRX8JYOTvT8-22" value="min" style="shape=parallelogram;perimeter=parallelogramPerimeter;whiteSpace=wrap;html=1;fixedSize=1;" parent="1" vertex="1">
          <mxGeometry x="630" y="220" width="120" height="60" as="geometry" />
        </mxCell>
        <mxCell id="yk9fj5srVQRX8JYOTvT8-23" value="End" style="ellipse;whiteSpace=wrap;html=1;" parent="1" vertex="1">
          <mxGeometry x="630" y="100" width="120" height="80" as="geometry" />
        </mxCell>
      </root>
    </mxGraphModel>
  </diagram>
  <diagram id="VwTVKQMcWfrWGsQKKZkA" name="BT2">
    <mxGraphModel dx="1290" dy="534" grid="1" gridSize="10" guides="1" tooltips="1" connect="1" arrows="1" fold="1" page="1" pageScale="1" pageWidth="827" pageHeight="1169" math="0" shadow="0">
      <root>
        <mxCell id="0" />
        <mxCell id="1" parent="0" />
        <mxCell id="TDUMJ01dN1oKWCgAaY8_-2" style="edgeStyle=orthogonalEdgeStyle;rounded=0;orthogonalLoop=1;jettySize=auto;html=1;exitX=0.5;exitY=1;exitDx=0;exitDy=0;" edge="1" parent="1" source="uTAmBXP8JFmXWPjMgQCv-1" target="TDUMJ01dN1oKWCgAaY8_-1">
          <mxGeometry relative="1" as="geometry" />
        </mxCell>
        <mxCell id="uTAmBXP8JFmXWPjMgQCv-1" value="Start" style="ellipse;whiteSpace=wrap;html=1;" parent="1" vertex="1">
          <mxGeometry x="90" y="30" width="120" height="80" as="geometry" />
        </mxCell>
        <mxCell id="uTAmBXP8JFmXWPjMgQCv-17" value="" style="edgeStyle=orthogonalEdgeStyle;rounded=0;orthogonalLoop=1;jettySize=auto;html=1;entryX=0;entryY=0.5;entryDx=0;entryDy=0;" parent="1" source="uTAmBXP8JFmXWPjMgQCv-15" target="1uXN_weLb3weCa8lBFDo-2" edge="1">
          <mxGeometry relative="1" as="geometry">
            <mxPoint x="640" y="340" as="targetPoint" />
          </mxGeometry>
        </mxCell>
        <mxCell id="uTAmBXP8JFmXWPjMgQCv-18" value="true" style="edgeLabel;html=1;align=center;verticalAlign=middle;resizable=0;points=[];" parent="uTAmBXP8JFmXWPjMgQCv-17" vertex="1" connectable="0">
          <mxGeometry x="-0.1867" y="-2" relative="1" as="geometry">
            <mxPoint as="offset" />
          </mxGeometry>
        </mxCell>
        <mxCell id="uTAmBXP8JFmXWPjMgQCv-22" value="" style="edgeStyle=orthogonalEdgeStyle;rounded=0;orthogonalLoop=1;jettySize=auto;html=1;entryX=0.5;entryY=0;entryDx=0;entryDy=0;" parent="1" source="uTAmBXP8JFmXWPjMgQCv-15" target="1uXN_weLb3weCa8lBFDo-3" edge="1">
          <mxGeometry relative="1" as="geometry">
            <mxPoint x="450" y="500" as="targetPoint" />
          </mxGeometry>
        </mxCell>
        <mxCell id="uTAmBXP8JFmXWPjMgQCv-23" value="false" style="edgeLabel;html=1;align=center;verticalAlign=middle;resizable=0;points=[];" parent="uTAmBXP8JFmXWPjMgQCv-22" vertex="1" connectable="0">
          <mxGeometry x="-0.1333" y="-2" relative="1" as="geometry">
            <mxPoint as="offset" />
          </mxGeometry>
        </mxCell>
        <mxCell id="uTAmBXP8JFmXWPjMgQCv-15" value="b=0" style="rhombus;whiteSpace=wrap;html=1;" parent="1" vertex="1">
          <mxGeometry x="410" y="300" width="80" height="80" as="geometry" />
        </mxCell>
        <mxCell id="uTAmBXP8JFmXWPjMgQCv-28" value="End" style="ellipse;whiteSpace=wrap;html=1;" parent="1" vertex="1">
          <mxGeometry x="630" y="840" width="120" height="80" as="geometry" />
        </mxCell>
        <mxCell id="TDUMJ01dN1oKWCgAaY8_-6" style="edgeStyle=orthogonalEdgeStyle;rounded=0;orthogonalLoop=1;jettySize=auto;html=1;exitX=0.5;exitY=1;exitDx=0;exitDy=0;entryX=0.5;entryY=0;entryDx=0;entryDy=0;" edge="1" parent="1" source="TDUMJ01dN1oKWCgAaY8_-1" target="OnrGuFbpJyR3qxQZJZdD-1">
          <mxGeometry relative="1" as="geometry">
            <mxPoint x="150" y="310" as="targetPoint" />
          </mxGeometry>
        </mxCell>
        <mxCell id="TDUMJ01dN1oKWCgAaY8_-1" value="a,b,x" style="shape=parallelogram;perimeter=parallelogramPerimeter;whiteSpace=wrap;html=1;fixedSize=1;" vertex="1" parent="1">
          <mxGeometry x="90" y="170" width="120" height="60" as="geometry" />
        </mxCell>
        <mxCell id="TDUMJ01dN1oKWCgAaY8_-10" style="edgeStyle=orthogonalEdgeStyle;rounded=0;orthogonalLoop=1;jettySize=auto;html=1;exitX=1;exitY=0.5;exitDx=0;exitDy=0;" edge="1" parent="1" source="OnrGuFbpJyR3qxQZJZdD-1" target="uTAmBXP8JFmXWPjMgQCv-15">
          <mxGeometry relative="1" as="geometry">
            <mxPoint x="210" y="340" as="sourcePoint" />
          </mxGeometry>
        </mxCell>
        <mxCell id="tQyP4x9ygcc6-cusNro0-1" value="true" style="edgeLabel;html=1;align=center;verticalAlign=middle;resizable=0;points=[];" vertex="1" connectable="0" parent="TDUMJ01dN1oKWCgAaY8_-10">
          <mxGeometry x="-0.13" y="-3" relative="1" as="geometry">
            <mxPoint as="offset" />
          </mxGeometry>
        </mxCell>
        <mxCell id="1uXN_weLb3weCa8lBFDo-8" style="edgeStyle=orthogonalEdgeStyle;rounded=0;orthogonalLoop=1;jettySize=auto;html=1;" edge="1" parent="1" source="1uXN_weLb3weCa8lBFDo-1" target="uTAmBXP8JFmXWPjMgQCv-28">
          <mxGeometry relative="1" as="geometry" />
        </mxCell>
        <mxCell id="1uXN_weLb3weCa8lBFDo-1" value="x" style="shape=parallelogram;perimeter=parallelogramPerimeter;whiteSpace=wrap;html=1;fixedSize=1;" vertex="1" parent="1">
          <mxGeometry x="630" y="710" width="120" height="60" as="geometry" />
        </mxCell>
        <mxCell id="1uXN_weLb3weCa8lBFDo-7" style="edgeStyle=orthogonalEdgeStyle;rounded=0;orthogonalLoop=1;jettySize=auto;html=1;" edge="1" parent="1" source="1uXN_weLb3weCa8lBFDo-2" target="1uXN_weLb3weCa8lBFDo-1">
          <mxGeometry relative="1" as="geometry" />
        </mxCell>
        <mxCell id="1uXN_weLb3weCa8lBFDo-2" value="x= vô số nghiệm" style="rounded=0;whiteSpace=wrap;html=1;" vertex="1" parent="1">
          <mxGeometry x="630" y="310" width="120" height="60" as="geometry" />
        </mxCell>
        <mxCell id="1uXN_weLb3weCa8lBFDo-6" style="edgeStyle=orthogonalEdgeStyle;rounded=0;orthogonalLoop=1;jettySize=auto;html=1;" edge="1" parent="1" source="1uXN_weLb3weCa8lBFDo-3">
          <mxGeometry relative="1" as="geometry">
            <mxPoint x="450" y="880" as="targetPoint" />
          </mxGeometry>
        </mxCell>
        <mxCell id="1uXN_weLb3weCa8lBFDo-3" value="x= vô nghiệm" style="rounded=0;whiteSpace=wrap;html=1;" vertex="1" parent="1">
          <mxGeometry x="390" y="490" width="120" height="60" as="geometry" />
        </mxCell>
        <mxCell id="OnrGuFbpJyR3qxQZJZdD-5" style="edgeStyle=orthogonalEdgeStyle;rounded=0;orthogonalLoop=1;jettySize=auto;html=1;exitX=1;exitY=0.5;exitDx=0;exitDy=0;entryX=0;entryY=0.5;entryDx=0;entryDy=0;" edge="1" parent="1" source="1uXN_weLb3weCa8lBFDo-4" target="uTAmBXP8JFmXWPjMgQCv-28">
          <mxGeometry relative="1" as="geometry" />
        </mxCell>
        <mxCell id="1uXN_weLb3weCa8lBFDo-4" value="x=-b/a" style="rounded=0;whiteSpace=wrap;html=1;" vertex="1" parent="1">
          <mxGeometry x="90" y="850" width="120" height="60" as="geometry" />
        </mxCell>
        <mxCell id="OnrGuFbpJyR3qxQZJZdD-3" style="edgeStyle=orthogonalEdgeStyle;rounded=0;orthogonalLoop=1;jettySize=auto;html=1;entryX=0.5;entryY=0;entryDx=0;entryDy=0;" edge="1" parent="1" source="OnrGuFbpJyR3qxQZJZdD-1" target="1uXN_weLb3weCa8lBFDo-4">
          <mxGeometry relative="1" as="geometry" />
        </mxCell>
        <mxCell id="OnrGuFbpJyR3qxQZJZdD-4" value="false" style="edgeLabel;html=1;align=center;verticalAlign=middle;resizable=0;points=[];" vertex="1" connectable="0" parent="OnrGuFbpJyR3qxQZJZdD-3">
          <mxGeometry x="-0.1833" y="4" relative="1" as="geometry">
            <mxPoint as="offset" />
          </mxGeometry>
        </mxCell>
        <mxCell id="OnrGuFbpJyR3qxQZJZdD-1" value="a=0" style="rhombus;whiteSpace=wrap;html=1;" vertex="1" parent="1">
          <mxGeometry x="110" y="300" width="80" height="80" as="geometry" />
        </mxCell>
      </root>
    </mxGraphModel>
  </diagram>
  <diagram id="OA0INjRaJFbequSqRfdZ" name="BT3">
    <mxGraphModel dx="2117" dy="534" grid="1" gridSize="10" guides="1" tooltips="1" connect="1" arrows="1" fold="1" page="1" pageScale="1" pageWidth="827" pageHeight="1169" math="0" shadow="0">
      <root>
        <mxCell id="0" />
        <mxCell id="1" parent="0" />
        <mxCell id="f2R7wofMEdPR1ZbCll-I-3" value="" style="edgeStyle=orthogonalEdgeStyle;rounded=0;orthogonalLoop=1;jettySize=auto;html=1;" edge="1" parent="1" source="S5i7viHvIYWaGVrTHlLq-1" target="f2R7wofMEdPR1ZbCll-I-2">
          <mxGeometry relative="1" as="geometry" />
        </mxCell>
        <mxCell id="S5i7viHvIYWaGVrTHlLq-1" value="Start" style="ellipse;whiteSpace=wrap;html=1;" vertex="1" parent="1">
          <mxGeometry x="70" y="40" width="120" height="80" as="geometry" />
        </mxCell>
        <mxCell id="f2R7wofMEdPR1ZbCll-I-5" value="" style="edgeStyle=orthogonalEdgeStyle;rounded=0;orthogonalLoop=1;jettySize=auto;html=1;" edge="1" parent="1" source="S5i7viHvIYWaGVrTHlLq-2" target="S5i7viHvIYWaGVrTHlLq-3">
          <mxGeometry relative="1" as="geometry" />
        </mxCell>
        <mxCell id="S5i7viHvIYWaGVrTHlLq-2" value="a,b" style="shape=parallelogram;perimeter=parallelogramPerimeter;whiteSpace=wrap;html=1;fixedSize=1;" vertex="1" parent="1">
          <mxGeometry x="70" y="240" width="120" height="60" as="geometry" />
        </mxCell>
        <mxCell id="f2R7wofMEdPR1ZbCll-I-7" value="" style="edgeStyle=orthogonalEdgeStyle;rounded=0;orthogonalLoop=1;jettySize=auto;html=1;" edge="1" parent="1" source="S5i7viHvIYWaGVrTHlLq-3" target="f2R7wofMEdPR1ZbCll-I-6">
          <mxGeometry relative="1" as="geometry" />
        </mxCell>
        <mxCell id="S5i7viHvIYWaGVrTHlLq-3" value="c=a,d=b" style="rounded=0;whiteSpace=wrap;html=1;" vertex="1" parent="1">
          <mxGeometry x="70" y="350" width="120" height="60" as="geometry" />
        </mxCell>
        <mxCell id="f2R7wofMEdPR1ZbCll-I-4" value="" style="edgeStyle=orthogonalEdgeStyle;rounded=0;orthogonalLoop=1;jettySize=auto;html=1;" edge="1" parent="1" source="f2R7wofMEdPR1ZbCll-I-2" target="S5i7viHvIYWaGVrTHlLq-2">
          <mxGeometry relative="1" as="geometry" />
        </mxCell>
        <mxCell id="f2R7wofMEdPR1ZbCll-I-2" value="a,b,c,d" style="rounded=0;whiteSpace=wrap;html=1;" vertex="1" parent="1">
          <mxGeometry x="70" y="150" width="120" height="60" as="geometry" />
        </mxCell>
        <mxCell id="f2R7wofMEdPR1ZbCll-I-9" value="" style="edgeStyle=orthogonalEdgeStyle;rounded=0;orthogonalLoop=1;jettySize=auto;html=1;" edge="1" parent="1" source="f2R7wofMEdPR1ZbCll-I-6" target="f2R7wofMEdPR1ZbCll-I-8">
          <mxGeometry relative="1" as="geometry" />
        </mxCell>
        <mxCell id="f2R7wofMEdPR1ZbCll-I-18" value="false" style="edgeLabel;html=1;align=center;verticalAlign=middle;resizable=0;points=[];" vertex="1" connectable="0" parent="f2R7wofMEdPR1ZbCll-I-9">
          <mxGeometry x="-0.1644" y="2" relative="1" as="geometry">
            <mxPoint as="offset" />
          </mxGeometry>
        </mxCell>
        <mxCell id="f2R7wofMEdPR1ZbCll-I-13" value="" style="edgeStyle=orthogonalEdgeStyle;rounded=0;orthogonalLoop=1;jettySize=auto;html=1;" edge="1" parent="1" source="f2R7wofMEdPR1ZbCll-I-6" target="f2R7wofMEdPR1ZbCll-I-12">
          <mxGeometry relative="1" as="geometry" />
        </mxCell>
        <mxCell id="f2R7wofMEdPR1ZbCll-I-16" value="true" style="edgeLabel;html=1;align=center;verticalAlign=middle;resizable=0;points=[];" vertex="1" connectable="0" parent="f2R7wofMEdPR1ZbCll-I-13">
          <mxGeometry x="-0.1733" y="2" relative="1" as="geometry">
            <mxPoint as="offset" />
          </mxGeometry>
        </mxCell>
        <mxCell id="f2R7wofMEdPR1ZbCll-I-6" value="a=b" style="rhombus;whiteSpace=wrap;html=1;" vertex="1" parent="1">
          <mxGeometry x="90" y="460" width="80" height="80" as="geometry" />
        </mxCell>
        <mxCell id="f2R7wofMEdPR1ZbCll-I-11" value="" style="edgeStyle=orthogonalEdgeStyle;rounded=0;orthogonalLoop=1;jettySize=auto;html=1;" edge="1" parent="1" source="f2R7wofMEdPR1ZbCll-I-8" target="f2R7wofMEdPR1ZbCll-I-10">
          <mxGeometry relative="1" as="geometry" />
        </mxCell>
        <mxCell id="f2R7wofMEdPR1ZbCll-I-19" value="false" style="edgeLabel;html=1;align=center;verticalAlign=middle;resizable=0;points=[];" vertex="1" connectable="0" parent="f2R7wofMEdPR1ZbCll-I-11">
          <mxGeometry x="-0.2089" y="1" relative="1" as="geometry">
            <mxPoint as="offset" />
          </mxGeometry>
        </mxCell>
        <mxCell id="f2R7wofMEdPR1ZbCll-I-15" value="" style="edgeStyle=orthogonalEdgeStyle;rounded=0;orthogonalLoop=1;jettySize=auto;html=1;" edge="1" parent="1" source="f2R7wofMEdPR1ZbCll-I-8" target="f2R7wofMEdPR1ZbCll-I-14">
          <mxGeometry relative="1" as="geometry" />
        </mxCell>
        <mxCell id="f2R7wofMEdPR1ZbCll-I-17" value="true" style="edgeLabel;html=1;align=center;verticalAlign=middle;resizable=0;points=[];" vertex="1" connectable="0" parent="f2R7wofMEdPR1ZbCll-I-15">
          <mxGeometry x="-0.12" relative="1" as="geometry">
            <mxPoint as="offset" />
          </mxGeometry>
        </mxCell>
        <mxCell id="f2R7wofMEdPR1ZbCll-I-8" value="a&amp;gt;b" style="rhombus;whiteSpace=wrap;html=1;" vertex="1" parent="1">
          <mxGeometry x="90" y="585" width="80" height="80" as="geometry" />
        </mxCell>
        <mxCell id="f2R7wofMEdPR1ZbCll-I-24" style="edgeStyle=orthogonalEdgeStyle;rounded=0;orthogonalLoop=1;jettySize=auto;html=1;exitX=0.5;exitY=1;exitDx=0;exitDy=0;" edge="1" parent="1" source="f2R7wofMEdPR1ZbCll-I-10">
          <mxGeometry relative="1" as="geometry">
            <mxPoint x="130" y="450" as="targetPoint" />
            <Array as="points">
              <mxPoint x="130" y="790" />
              <mxPoint x="30" y="790" />
              <mxPoint x="30" y="450" />
              <mxPoint x="100" y="450" />
            </Array>
          </mxGeometry>
        </mxCell>
        <mxCell id="f2R7wofMEdPR1ZbCll-I-10" value="b=b-a" style="rounded=0;whiteSpace=wrap;html=1;" vertex="1" parent="1">
          <mxGeometry x="70" y="710" width="120" height="60" as="geometry" />
        </mxCell>
        <mxCell id="f2R7wofMEdPR1ZbCll-I-21" value="" style="edgeStyle=orthogonalEdgeStyle;rounded=0;orthogonalLoop=1;jettySize=auto;html=1;" edge="1" parent="1" source="f2R7wofMEdPR1ZbCll-I-12" target="f2R7wofMEdPR1ZbCll-I-20">
          <mxGeometry relative="1" as="geometry" />
        </mxCell>
        <mxCell id="f2R7wofMEdPR1ZbCll-I-12" value="UCLN=a" style="whiteSpace=wrap;html=1;" vertex="1" parent="1">
          <mxGeometry x="320" y="470" width="120" height="60" as="geometry" />
        </mxCell>
        <mxCell id="f2R7wofMEdPR1ZbCll-I-25" style="edgeStyle=orthogonalEdgeStyle;rounded=0;orthogonalLoop=1;jettySize=auto;html=1;exitX=0.5;exitY=1;exitDx=0;exitDy=0;" edge="1" parent="1" source="f2R7wofMEdPR1ZbCll-I-14">
          <mxGeometry relative="1" as="geometry">
            <mxPoint x="130" y="430" as="targetPoint" />
            <mxPoint x="339" y="665" as="sourcePoint" />
            <Array as="points">
              <mxPoint x="380" y="840" />
              <mxPoint y="840" />
              <mxPoint y="430" />
            </Array>
          </mxGeometry>
        </mxCell>
        <mxCell id="f2R7wofMEdPR1ZbCll-I-14" value="a=a-b" style="whiteSpace=wrap;html=1;" vertex="1" parent="1">
          <mxGeometry x="320" y="595" width="120" height="60" as="geometry" />
        </mxCell>
        <mxCell id="f2R7wofMEdPR1ZbCll-I-23" style="edgeStyle=orthogonalEdgeStyle;rounded=0;orthogonalLoop=1;jettySize=auto;html=1;" edge="1" parent="1" source="f2R7wofMEdPR1ZbCll-I-20" target="f2R7wofMEdPR1ZbCll-I-22">
          <mxGeometry relative="1" as="geometry" />
        </mxCell>
        <mxCell id="f2R7wofMEdPR1ZbCll-I-20" value="BCNN=(c*d)/UCLN" style="whiteSpace=wrap;html=1;" vertex="1" parent="1">
          <mxGeometry x="590" y="470" width="120" height="60" as="geometry" />
        </mxCell>
        <mxCell id="f2R7wofMEdPR1ZbCll-I-22" value="End" style="ellipse;whiteSpace=wrap;html=1;" vertex="1" parent="1">
          <mxGeometry x="590" y="700" width="120" height="80" as="geometry" />
        </mxCell>
      </root>
    </mxGraphModel>
  </diagram>
  <diagram id="iZc3kzzZ-x92_3DUr52t" name="BT4">
    <mxGraphModel dx="1290" dy="534" grid="1" gridSize="10" guides="1" tooltips="1" connect="1" arrows="1" fold="1" page="1" pageScale="1" pageWidth="827" pageHeight="1169" math="0" shadow="0">
      <root>
        <mxCell id="0" />
        <mxCell id="1" parent="0" />
        <mxCell id="BjmFMK61AYbom1ncWwxK-3" value="" style="edgeStyle=orthogonalEdgeStyle;rounded=0;orthogonalLoop=1;jettySize=auto;html=1;" edge="1" parent="1" source="BjmFMK61AYbom1ncWwxK-1" target="BjmFMK61AYbom1ncWwxK-2">
          <mxGeometry relative="1" as="geometry" />
        </mxCell>
        <mxCell id="BjmFMK61AYbom1ncWwxK-1" value="Start" style="ellipse;whiteSpace=wrap;html=1;" vertex="1" parent="1">
          <mxGeometry x="110" y="40" width="120" height="80" as="geometry" />
        </mxCell>
        <mxCell id="BjmFMK61AYbom1ncWwxK-5" value="" style="edgeStyle=orthogonalEdgeStyle;rounded=0;orthogonalLoop=1;jettySize=auto;html=1;" edge="1" parent="1" source="BjmFMK61AYbom1ncWwxK-2" target="BjmFMK61AYbom1ncWwxK-4">
          <mxGeometry relative="1" as="geometry" />
        </mxCell>
        <mxCell id="BjmFMK61AYbom1ncWwxK-2" value="a,b,c,x,y,x1,x2" style="shape=parallelogram;perimeter=parallelogramPerimeter;whiteSpace=wrap;html=1;fixedSize=1;" vertex="1" parent="1">
          <mxGeometry x="110" y="170" width="120" height="60" as="geometry" />
        </mxCell>
        <mxCell id="BjmFMK61AYbom1ncWwxK-7" value="" style="edgeStyle=orthogonalEdgeStyle;rounded=0;orthogonalLoop=1;jettySize=auto;html=1;" edge="1" parent="1" source="BjmFMK61AYbom1ncWwxK-4" target="BjmFMK61AYbom1ncWwxK-6">
          <mxGeometry relative="1" as="geometry" />
        </mxCell>
        <mxCell id="BjmFMK61AYbom1ncWwxK-4" value="ax2+bx+c=0" style="whiteSpace=wrap;html=1;" vertex="1" parent="1">
          <mxGeometry x="110" y="290" width="120" height="60" as="geometry" />
        </mxCell>
        <mxCell id="BjmFMK61AYbom1ncWwxK-9" value="" style="edgeStyle=orthogonalEdgeStyle;rounded=0;orthogonalLoop=1;jettySize=auto;html=1;" edge="1" parent="1" source="BjmFMK61AYbom1ncWwxK-6" target="BjmFMK61AYbom1ncWwxK-8">
          <mxGeometry relative="1" as="geometry" />
        </mxCell>
        <mxCell id="BjmFMK61AYbom1ncWwxK-10" value="true" style="edgeLabel;html=1;align=center;verticalAlign=middle;resizable=0;points=[];" vertex="1" connectable="0" parent="BjmFMK61AYbom1ncWwxK-9">
          <mxGeometry x="-0.205" y="-2" relative="1" as="geometry">
            <mxPoint as="offset" />
          </mxGeometry>
        </mxCell>
        <mxCell id="BjmFMK61AYbom1ncWwxK-28" value="" style="edgeStyle=orthogonalEdgeStyle;rounded=0;orthogonalLoop=1;jettySize=auto;html=1;" edge="1" parent="1" source="BjmFMK61AYbom1ncWwxK-6" target="BjmFMK61AYbom1ncWwxK-27">
          <mxGeometry relative="1" as="geometry" />
        </mxCell>
        <mxCell id="BjmFMK61AYbom1ncWwxK-29" value="false" style="edgeLabel;html=1;align=center;verticalAlign=middle;resizable=0;points=[];" vertex="1" connectable="0" parent="BjmFMK61AYbom1ncWwxK-28">
          <mxGeometry x="-0.0863" y="2" relative="1" as="geometry">
            <mxPoint as="offset" />
          </mxGeometry>
        </mxCell>
        <mxCell id="BjmFMK61AYbom1ncWwxK-6" value="a=0" style="rhombus;whiteSpace=wrap;html=1;" vertex="1" parent="1">
          <mxGeometry x="130" y="420" width="80" height="80" as="geometry" />
        </mxCell>
        <mxCell id="BjmFMK61AYbom1ncWwxK-12" value="" style="edgeStyle=orthogonalEdgeStyle;rounded=0;orthogonalLoop=1;jettySize=auto;html=1;" edge="1" parent="1" source="BjmFMK61AYbom1ncWwxK-8" target="BjmFMK61AYbom1ncWwxK-11">
          <mxGeometry relative="1" as="geometry" />
        </mxCell>
        <mxCell id="BjmFMK61AYbom1ncWwxK-13" value="true" style="edgeLabel;html=1;align=center;verticalAlign=middle;resizable=0;points=[];" vertex="1" connectable="0" parent="BjmFMK61AYbom1ncWwxK-12">
          <mxGeometry x="-0.28" y="1" relative="1" as="geometry">
            <mxPoint as="offset" />
          </mxGeometry>
        </mxCell>
        <mxCell id="BjmFMK61AYbom1ncWwxK-22" value="" style="edgeStyle=orthogonalEdgeStyle;rounded=0;orthogonalLoop=1;jettySize=auto;html=1;" edge="1" parent="1" source="BjmFMK61AYbom1ncWwxK-8" target="BjmFMK61AYbom1ncWwxK-21">
          <mxGeometry relative="1" as="geometry" />
        </mxCell>
        <mxCell id="BjmFMK61AYbom1ncWwxK-23" value="false" style="edgeLabel;html=1;align=center;verticalAlign=middle;resizable=0;points=[];" vertex="1" connectable="0" parent="BjmFMK61AYbom1ncWwxK-22">
          <mxGeometry x="-0.1156" relative="1" as="geometry">
            <mxPoint as="offset" />
          </mxGeometry>
        </mxCell>
        <mxCell id="BjmFMK61AYbom1ncWwxK-8" value="b=0" style="rhombus;whiteSpace=wrap;html=1;" vertex="1" parent="1">
          <mxGeometry x="290" y="420" width="80" height="80" as="geometry" />
        </mxCell>
        <mxCell id="BjmFMK61AYbom1ncWwxK-15" value="" style="edgeStyle=orthogonalEdgeStyle;rounded=0;orthogonalLoop=1;jettySize=auto;html=1;entryX=0;entryY=0.5;entryDx=0;entryDy=0;" edge="1" parent="1" source="BjmFMK61AYbom1ncWwxK-11" target="BjmFMK61AYbom1ncWwxK-16">
          <mxGeometry relative="1" as="geometry">
            <mxPoint x="590" y="460" as="targetPoint" />
          </mxGeometry>
        </mxCell>
        <mxCell id="BjmFMK61AYbom1ncWwxK-19" value="true" style="edgeLabel;html=1;align=center;verticalAlign=middle;resizable=0;points=[];" vertex="1" connectable="0" parent="BjmFMK61AYbom1ncWwxK-15">
          <mxGeometry x="-0.185" y="1" relative="1" as="geometry">
            <mxPoint as="offset" />
          </mxGeometry>
        </mxCell>
        <mxCell id="BjmFMK61AYbom1ncWwxK-18" value="" style="edgeStyle=orthogonalEdgeStyle;rounded=0;orthogonalLoop=1;jettySize=auto;html=1;" edge="1" parent="1" source="BjmFMK61AYbom1ncWwxK-11" target="BjmFMK61AYbom1ncWwxK-17">
          <mxGeometry relative="1" as="geometry" />
        </mxCell>
        <mxCell id="BjmFMK61AYbom1ncWwxK-20" value="false" style="edgeLabel;html=1;align=center;verticalAlign=middle;resizable=0;points=[];" vertex="1" connectable="0" parent="BjmFMK61AYbom1ncWwxK-18">
          <mxGeometry x="-0.16" relative="1" as="geometry">
            <mxPoint as="offset" />
          </mxGeometry>
        </mxCell>
        <mxCell id="BjmFMK61AYbom1ncWwxK-11" value="c=0" style="rhombus;whiteSpace=wrap;html=1;" vertex="1" parent="1">
          <mxGeometry x="450" y="420" width="80" height="80" as="geometry" />
        </mxCell>
        <mxCell id="BjmFMK61AYbom1ncWwxK-65" style="edgeStyle=orthogonalEdgeStyle;rounded=0;orthogonalLoop=1;jettySize=auto;html=1;exitX=1;exitY=0.5;exitDx=0;exitDy=0;entryX=0.5;entryY=0;entryDx=0;entryDy=0;" edge="1" parent="1" source="BjmFMK61AYbom1ncWwxK-16" target="BjmFMK61AYbom1ncWwxK-61">
          <mxGeometry relative="1" as="geometry" />
        </mxCell>
        <mxCell id="BjmFMK61AYbom1ncWwxK-16" value="x vô số nghiệm" style="shape=parallelogram;perimeter=parallelogramPerimeter;whiteSpace=wrap;html=1;fixedSize=1;" vertex="1" parent="1">
          <mxGeometry x="600" y="430" width="120" height="60" as="geometry" />
        </mxCell>
        <mxCell id="BjmFMK61AYbom1ncWwxK-66" style="edgeStyle=orthogonalEdgeStyle;rounded=0;orthogonalLoop=1;jettySize=auto;html=1;exitX=1;exitY=0.5;exitDx=0;exitDy=0;entryX=0.5;entryY=0;entryDx=0;entryDy=0;" edge="1" parent="1" source="BjmFMK61AYbom1ncWwxK-17" target="BjmFMK61AYbom1ncWwxK-61">
          <mxGeometry relative="1" as="geometry">
            <mxPoint x="870" y="840" as="targetPoint" />
          </mxGeometry>
        </mxCell>
        <mxCell id="BjmFMK61AYbom1ncWwxK-17" value="x vô nghiệm" style="shape=parallelogram;perimeter=parallelogramPerimeter;whiteSpace=wrap;html=1;fixedSize=1;" vertex="1" parent="1">
          <mxGeometry x="430" y="590" width="120" height="60" as="geometry" />
        </mxCell>
        <mxCell id="BjmFMK61AYbom1ncWwxK-63" style="edgeStyle=orthogonalEdgeStyle;rounded=0;orthogonalLoop=1;jettySize=auto;html=1;exitX=0.5;exitY=1;exitDx=0;exitDy=0;entryX=0.5;entryY=0;entryDx=0;entryDy=0;" edge="1" parent="1" source="BjmFMK61AYbom1ncWwxK-21" target="BjmFMK61AYbom1ncWwxK-56">
          <mxGeometry relative="1" as="geometry">
            <Array as="points">
              <mxPoint x="330" y="690" />
              <mxPoint x="700" y="690" />
            </Array>
          </mxGeometry>
        </mxCell>
        <mxCell id="BjmFMK61AYbom1ncWwxK-21" value="x=-c/b" style="whiteSpace=wrap;html=1;" vertex="1" parent="1">
          <mxGeometry x="270" y="590" width="120" height="60" as="geometry" />
        </mxCell>
        <mxCell id="BjmFMK61AYbom1ncWwxK-46" style="edgeStyle=orthogonalEdgeStyle;rounded=0;orthogonalLoop=1;jettySize=auto;html=1;exitX=1;exitY=0.5;exitDx=0;exitDy=0;entryX=0;entryY=0.5;entryDx=0;entryDy=0;" edge="1" parent="1" source="BjmFMK61AYbom1ncWwxK-24" target="BjmFMK61AYbom1ncWwxK-47">
          <mxGeometry relative="1" as="geometry">
            <mxPoint x="260" y="1220" as="targetPoint" />
          </mxGeometry>
        </mxCell>
        <mxCell id="BjmFMK61AYbom1ncWwxK-48" style="edgeStyle=orthogonalEdgeStyle;rounded=0;orthogonalLoop=1;jettySize=auto;html=1;exitX=1;exitY=0.5;exitDx=0;exitDy=0;entryX=0;entryY=0.5;entryDx=0;entryDy=0;" edge="1" parent="1" source="BjmFMK61AYbom1ncWwxK-24" target="BjmFMK61AYbom1ncWwxK-45">
          <mxGeometry relative="1" as="geometry" />
        </mxCell>
        <mxCell id="BjmFMK61AYbom1ncWwxK-49" style="edgeStyle=orthogonalEdgeStyle;rounded=0;orthogonalLoop=1;jettySize=auto;html=1;exitX=1;exitY=0.5;exitDx=0;exitDy=0;entryX=0;entryY=0.5;entryDx=0;entryDy=0;" edge="1" parent="1" source="BjmFMK61AYbom1ncWwxK-24" target="BjmFMK61AYbom1ncWwxK-42">
          <mxGeometry relative="1" as="geometry" />
        </mxCell>
        <mxCell id="BjmFMK61AYbom1ncWwxK-24" value="y=(b*b)-(4*a*c)" style="whiteSpace=wrap;html=1;" vertex="1" parent="1">
          <mxGeometry x="110" y="1080" width="120" height="60" as="geometry" />
        </mxCell>
        <mxCell id="BjmFMK61AYbom1ncWwxK-30" value="" style="edgeStyle=orthogonalEdgeStyle;rounded=0;orthogonalLoop=1;jettySize=auto;html=1;" edge="1" parent="1" source="BjmFMK61AYbom1ncWwxK-27" target="BjmFMK61AYbom1ncWwxK-24">
          <mxGeometry relative="1" as="geometry" />
        </mxCell>
        <mxCell id="BjmFMK61AYbom1ncWwxK-31" value="false" style="edgeLabel;html=1;align=center;verticalAlign=middle;resizable=0;points=[];" vertex="1" connectable="0" parent="BjmFMK61AYbom1ncWwxK-30">
          <mxGeometry x="-0.0582" y="2" relative="1" as="geometry">
            <mxPoint as="offset" />
          </mxGeometry>
        </mxCell>
        <mxCell id="BjmFMK61AYbom1ncWwxK-33" value="" style="edgeStyle=orthogonalEdgeStyle;rounded=0;orthogonalLoop=1;jettySize=auto;html=1;" edge="1" parent="1" source="BjmFMK61AYbom1ncWwxK-27" target="BjmFMK61AYbom1ncWwxK-32">
          <mxGeometry relative="1" as="geometry" />
        </mxCell>
        <mxCell id="BjmFMK61AYbom1ncWwxK-34" value="true" style="edgeLabel;html=1;align=center;verticalAlign=middle;resizable=0;points=[];" vertex="1" connectable="0" parent="BjmFMK61AYbom1ncWwxK-33">
          <mxGeometry x="-0.16" y="2" relative="1" as="geometry">
            <mxPoint as="offset" />
          </mxGeometry>
        </mxCell>
        <mxCell id="BjmFMK61AYbom1ncWwxK-27" value="b=0" style="rhombus;whiteSpace=wrap;html=1;" vertex="1" parent="1">
          <mxGeometry x="130" y="710" width="80" height="80" as="geometry" />
        </mxCell>
        <mxCell id="BjmFMK61AYbom1ncWwxK-36" value="" style="edgeStyle=orthogonalEdgeStyle;rounded=0;orthogonalLoop=1;jettySize=auto;html=1;" edge="1" parent="1" source="BjmFMK61AYbom1ncWwxK-32" target="BjmFMK61AYbom1ncWwxK-35">
          <mxGeometry relative="1" as="geometry" />
        </mxCell>
        <mxCell id="BjmFMK61AYbom1ncWwxK-37" value="true" style="edgeLabel;html=1;align=center;verticalAlign=middle;resizable=0;points=[];" vertex="1" connectable="0" parent="BjmFMK61AYbom1ncWwxK-36">
          <mxGeometry x="-0.2686" y="-1" relative="1" as="geometry">
            <mxPoint as="offset" />
          </mxGeometry>
        </mxCell>
        <mxCell id="BjmFMK61AYbom1ncWwxK-39" value="" style="edgeStyle=orthogonalEdgeStyle;rounded=0;orthogonalLoop=1;jettySize=auto;html=1;" edge="1" parent="1" source="BjmFMK61AYbom1ncWwxK-32" target="BjmFMK61AYbom1ncWwxK-38">
          <mxGeometry relative="1" as="geometry" />
        </mxCell>
        <mxCell id="BjmFMK61AYbom1ncWwxK-40" value="false" style="edgeLabel;html=1;align=center;verticalAlign=middle;resizable=0;points=[];" vertex="1" connectable="0" parent="BjmFMK61AYbom1ncWwxK-39">
          <mxGeometry x="-0.1378" relative="1" as="geometry">
            <mxPoint as="offset" />
          </mxGeometry>
        </mxCell>
        <mxCell id="BjmFMK61AYbom1ncWwxK-32" value="c=0" style="rhombus;whiteSpace=wrap;html=1;" vertex="1" parent="1">
          <mxGeometry x="290" y="710" width="80" height="80" as="geometry" />
        </mxCell>
        <mxCell id="BjmFMK61AYbom1ncWwxK-59" style="edgeStyle=orthogonalEdgeStyle;rounded=0;orthogonalLoop=1;jettySize=auto;html=1;exitX=1;exitY=0.5;exitDx=0;exitDy=0;entryX=0.5;entryY=0;entryDx=0;entryDy=0;" edge="1" parent="1" source="BjmFMK61AYbom1ncWwxK-35" target="BjmFMK61AYbom1ncWwxK-56">
          <mxGeometry relative="1" as="geometry" />
        </mxCell>
        <mxCell id="BjmFMK61AYbom1ncWwxK-35" value="x=0" style="whiteSpace=wrap;html=1;" vertex="1" parent="1">
          <mxGeometry x="440" y="720" width="120" height="60" as="geometry" />
        </mxCell>
        <mxCell id="BjmFMK61AYbom1ncWwxK-60" style="edgeStyle=orthogonalEdgeStyle;rounded=0;orthogonalLoop=1;jettySize=auto;html=1;exitX=1;exitY=0.5;exitDx=0;exitDy=0;entryX=0;entryY=0.5;entryDx=0;entryDy=0;" edge="1" parent="1" source="BjmFMK61AYbom1ncWwxK-38" target="BjmFMK61AYbom1ncWwxK-56">
          <mxGeometry relative="1" as="geometry" />
        </mxCell>
        <mxCell id="BjmFMK61AYbom1ncWwxK-38" value="x=sqrt(-c/a)" style="whiteSpace=wrap;html=1;" vertex="1" parent="1">
          <mxGeometry x="270" y="850" width="120" height="60" as="geometry" />
        </mxCell>
        <mxCell id="BjmFMK61AYbom1ncWwxK-51" value="" style="edgeStyle=orthogonalEdgeStyle;rounded=0;orthogonalLoop=1;jettySize=auto;html=1;" edge="1" parent="1" source="BjmFMK61AYbom1ncWwxK-42" target="BjmFMK61AYbom1ncWwxK-50">
          <mxGeometry relative="1" as="geometry" />
        </mxCell>
        <mxCell id="BjmFMK61AYbom1ncWwxK-42" value="y=0" style="rhombus;whiteSpace=wrap;html=1;" vertex="1" parent="1">
          <mxGeometry x="334" y="950" width="80" height="80" as="geometry" />
        </mxCell>
        <mxCell id="BjmFMK61AYbom1ncWwxK-55" value="" style="edgeStyle=orthogonalEdgeStyle;rounded=0;orthogonalLoop=1;jettySize=auto;html=1;" edge="1" parent="1" source="BjmFMK61AYbom1ncWwxK-45" target="BjmFMK61AYbom1ncWwxK-54">
          <mxGeometry relative="1" as="geometry" />
        </mxCell>
        <mxCell id="BjmFMK61AYbom1ncWwxK-45" value="y&amp;gt;0" style="rhombus;whiteSpace=wrap;html=1;" vertex="1" parent="1">
          <mxGeometry x="334" y="1190" width="80" height="80" as="geometry" />
        </mxCell>
        <mxCell id="BjmFMK61AYbom1ncWwxK-53" value="" style="edgeStyle=orthogonalEdgeStyle;rounded=0;orthogonalLoop=1;jettySize=auto;html=1;" edge="1" parent="1" source="BjmFMK61AYbom1ncWwxK-47" target="BjmFMK61AYbom1ncWwxK-52">
          <mxGeometry relative="1" as="geometry" />
        </mxCell>
        <mxCell id="BjmFMK61AYbom1ncWwxK-47" value="y&amp;lt;0" style="rhombus;whiteSpace=wrap;html=1;" vertex="1" parent="1">
          <mxGeometry x="334" y="1070" width="80" height="80" as="geometry" />
        </mxCell>
        <mxCell id="BjmFMK61AYbom1ncWwxK-57" style="edgeStyle=orthogonalEdgeStyle;rounded=0;orthogonalLoop=1;jettySize=auto;html=1;exitX=1;exitY=0.5;exitDx=0;exitDy=0;entryX=0.5;entryY=1;entryDx=0;entryDy=0;" edge="1" parent="1" source="BjmFMK61AYbom1ncWwxK-50" target="BjmFMK61AYbom1ncWwxK-56">
          <mxGeometry relative="1" as="geometry" />
        </mxCell>
        <mxCell id="BjmFMK61AYbom1ncWwxK-50" value="x1=x2=-b/(2a)" style="whiteSpace=wrap;html=1;" vertex="1" parent="1">
          <mxGeometry x="474" y="960" width="120" height="60" as="geometry" />
        </mxCell>
        <mxCell id="BjmFMK61AYbom1ncWwxK-64" style="edgeStyle=orthogonalEdgeStyle;rounded=0;orthogonalLoop=1;jettySize=auto;html=1;exitX=1;exitY=0.5;exitDx=0;exitDy=0;entryX=0.5;entryY=1;entryDx=0;entryDy=0;" edge="1" parent="1" source="BjmFMK61AYbom1ncWwxK-52" target="BjmFMK61AYbom1ncWwxK-61">
          <mxGeometry relative="1" as="geometry" />
        </mxCell>
        <mxCell id="BjmFMK61AYbom1ncWwxK-52" value="x vô nghiệm" style="shape=parallelogram;perimeter=parallelogramPerimeter;whiteSpace=wrap;html=1;fixedSize=1;" vertex="1" parent="1">
          <mxGeometry x="474" y="1080" width="120" height="60" as="geometry" />
        </mxCell>
        <mxCell id="BjmFMK61AYbom1ncWwxK-58" style="edgeStyle=orthogonalEdgeStyle;rounded=0;orthogonalLoop=1;jettySize=auto;html=1;exitX=1;exitY=0.5;exitDx=0;exitDy=0;" edge="1" parent="1" source="BjmFMK61AYbom1ncWwxK-54">
          <mxGeometry relative="1" as="geometry">
            <mxPoint x="700" y="880" as="targetPoint" />
          </mxGeometry>
        </mxCell>
        <mxCell id="BjmFMK61AYbom1ncWwxK-54" value="x1=(-b+sqrt(y))/2a&lt;br&gt;x2=(-b-sqrt(y))/2a" style="whiteSpace=wrap;html=1;" vertex="1" parent="1">
          <mxGeometry x="474" y="1200" width="120" height="60" as="geometry" />
        </mxCell>
        <mxCell id="BjmFMK61AYbom1ncWwxK-62" value="" style="edgeStyle=orthogonalEdgeStyle;rounded=0;orthogonalLoop=1;jettySize=auto;html=1;" edge="1" parent="1" source="BjmFMK61AYbom1ncWwxK-56" target="BjmFMK61AYbom1ncWwxK-61">
          <mxGeometry relative="1" as="geometry" />
        </mxCell>
        <mxCell id="BjmFMK61AYbom1ncWwxK-56" value="x" style="shape=parallelogram;perimeter=parallelogramPerimeter;whiteSpace=wrap;html=1;fixedSize=1;" vertex="1" parent="1">
          <mxGeometry x="640" y="850" width="120" height="60" as="geometry" />
        </mxCell>
        <mxCell id="BjmFMK61AYbom1ncWwxK-61" value="End" style="ellipse;whiteSpace=wrap;html=1;" vertex="1" parent="1">
          <mxGeometry x="810" y="840" width="120" height="80" as="geometry" />
        </mxCell>
      </root>
    </mxGraphModel>
  </diagram>
  <diagram id="IDdexBcHujehqx--wT5S" name="BT5">
    <mxGraphModel dx="1290" dy="534" grid="1" gridSize="10" guides="1" tooltips="1" connect="1" arrows="1" fold="1" page="1" pageScale="1" pageWidth="827" pageHeight="1169" math="0" shadow="0">
      <root>
        <mxCell id="0" />
        <mxCell id="1" parent="0" />
        <mxCell id="YgnV4QaEvoiQ_fqZWJFn-10" style="edgeStyle=orthogonalEdgeStyle;rounded=0;orthogonalLoop=1;jettySize=auto;html=1;" edge="1" parent="1" source="2U9qE3vZ0n3Oj7STTJra-1" target="YgnV4QaEvoiQ_fqZWJFn-9">
          <mxGeometry relative="1" as="geometry" />
        </mxCell>
        <mxCell id="2U9qE3vZ0n3Oj7STTJra-1" value="Start" style="ellipse;whiteSpace=wrap;html=1;" vertex="1" parent="1">
          <mxGeometry x="80" y="40" width="120" height="80" as="geometry" />
        </mxCell>
        <mxCell id="YgnV4QaEvoiQ_fqZWJFn-1" style="edgeStyle=orthogonalEdgeStyle;rounded=0;orthogonalLoop=1;jettySize=auto;html=1;entryX=0.5;entryY=0;entryDx=0;entryDy=0;" edge="1" parent="1" source="2U9qE3vZ0n3Oj7STTJra-2" target="YgnV4QaEvoiQ_fqZWJFn-2">
          <mxGeometry relative="1" as="geometry">
            <mxPoint x="140" y="480" as="targetPoint" />
          </mxGeometry>
        </mxCell>
        <mxCell id="2U9qE3vZ0n3Oj7STTJra-2" value="a,b" style="shape=parallelogram;perimeter=parallelogramPerimeter;whiteSpace=wrap;html=1;fixedSize=1;" vertex="1" parent="1">
          <mxGeometry x="80" y="320" width="120" height="60" as="geometry" />
        </mxCell>
        <mxCell id="YgnV4QaEvoiQ_fqZWJFn-6" value="" style="edgeStyle=orthogonalEdgeStyle;rounded=0;orthogonalLoop=1;jettySize=auto;html=1;" edge="1" parent="1" source="YgnV4QaEvoiQ_fqZWJFn-2" target="YgnV4QaEvoiQ_fqZWJFn-3">
          <mxGeometry relative="1" as="geometry" />
        </mxCell>
        <mxCell id="YgnV4QaEvoiQ_fqZWJFn-16" style="edgeStyle=orthogonalEdgeStyle;rounded=0;orthogonalLoop=1;jettySize=auto;html=1;entryX=0.5;entryY=0;entryDx=0;entryDy=0;" edge="1" parent="1" source="YgnV4QaEvoiQ_fqZWJFn-2" target="YgnV4QaEvoiQ_fqZWJFn-12">
          <mxGeometry relative="1" as="geometry" />
        </mxCell>
        <mxCell id="YgnV4QaEvoiQ_fqZWJFn-2" value="x=a+b" style="rounded=0;whiteSpace=wrap;html=1;" vertex="1" parent="1">
          <mxGeometry x="80" y="450" width="120" height="60" as="geometry" />
        </mxCell>
        <mxCell id="YgnV4QaEvoiQ_fqZWJFn-7" value="" style="edgeStyle=orthogonalEdgeStyle;rounded=0;orthogonalLoop=1;jettySize=auto;html=1;" edge="1" parent="1" source="YgnV4QaEvoiQ_fqZWJFn-3" target="YgnV4QaEvoiQ_fqZWJFn-4">
          <mxGeometry relative="1" as="geometry" />
        </mxCell>
        <mxCell id="YgnV4QaEvoiQ_fqZWJFn-15" style="edgeStyle=orthogonalEdgeStyle;rounded=0;orthogonalLoop=1;jettySize=auto;html=1;exitX=1;exitY=0.5;exitDx=0;exitDy=0;entryX=0;entryY=0.5;entryDx=0;entryDy=0;" edge="1" parent="1" source="YgnV4QaEvoiQ_fqZWJFn-3" target="YgnV4QaEvoiQ_fqZWJFn-12">
          <mxGeometry relative="1" as="geometry" />
        </mxCell>
        <mxCell id="YgnV4QaEvoiQ_fqZWJFn-3" value="x=a-b" style="rounded=0;whiteSpace=wrap;html=1;" vertex="1" parent="1">
          <mxGeometry x="80" y="560" width="120" height="60" as="geometry" />
        </mxCell>
        <mxCell id="YgnV4QaEvoiQ_fqZWJFn-8" value="" style="edgeStyle=orthogonalEdgeStyle;rounded=0;orthogonalLoop=1;jettySize=auto;html=1;" edge="1" parent="1" source="YgnV4QaEvoiQ_fqZWJFn-4" target="YgnV4QaEvoiQ_fqZWJFn-5">
          <mxGeometry relative="1" as="geometry" />
        </mxCell>
        <mxCell id="YgnV4QaEvoiQ_fqZWJFn-17" style="edgeStyle=orthogonalEdgeStyle;rounded=0;orthogonalLoop=1;jettySize=auto;html=1;exitX=1;exitY=0.5;exitDx=0;exitDy=0;entryX=0;entryY=0.5;entryDx=0;entryDy=0;" edge="1" parent="1" source="YgnV4QaEvoiQ_fqZWJFn-4" target="YgnV4QaEvoiQ_fqZWJFn-12">
          <mxGeometry relative="1" as="geometry" />
        </mxCell>
        <mxCell id="YgnV4QaEvoiQ_fqZWJFn-4" value="x=a*b" style="rounded=0;whiteSpace=wrap;html=1;" vertex="1" parent="1">
          <mxGeometry x="80" y="674.5" width="120" height="60" as="geometry" />
        </mxCell>
        <mxCell id="YgnV4QaEvoiQ_fqZWJFn-18" style="edgeStyle=orthogonalEdgeStyle;rounded=0;orthogonalLoop=1;jettySize=auto;html=1;entryX=0.5;entryY=1;entryDx=0;entryDy=0;" edge="1" parent="1" source="YgnV4QaEvoiQ_fqZWJFn-5" target="YgnV4QaEvoiQ_fqZWJFn-12">
          <mxGeometry relative="1" as="geometry" />
        </mxCell>
        <mxCell id="YgnV4QaEvoiQ_fqZWJFn-5" value="x=a/b" style="rounded=0;whiteSpace=wrap;html=1;" vertex="1" parent="1">
          <mxGeometry x="80" y="790" width="120" height="60" as="geometry" />
        </mxCell>
        <mxCell id="YgnV4QaEvoiQ_fqZWJFn-11" style="edgeStyle=orthogonalEdgeStyle;rounded=0;orthogonalLoop=1;jettySize=auto;html=1;entryX=0.5;entryY=0;entryDx=0;entryDy=0;" edge="1" parent="1" source="YgnV4QaEvoiQ_fqZWJFn-9" target="2U9qE3vZ0n3Oj7STTJra-2">
          <mxGeometry relative="1" as="geometry" />
        </mxCell>
        <mxCell id="YgnV4QaEvoiQ_fqZWJFn-9" value="a,b,x" style="rounded=0;whiteSpace=wrap;html=1;" vertex="1" parent="1">
          <mxGeometry x="80" y="190" width="120" height="60" as="geometry" />
        </mxCell>
        <mxCell id="YgnV4QaEvoiQ_fqZWJFn-14" style="edgeStyle=orthogonalEdgeStyle;rounded=0;orthogonalLoop=1;jettySize=auto;html=1;entryX=0;entryY=0.5;entryDx=0;entryDy=0;" edge="1" parent="1" source="YgnV4QaEvoiQ_fqZWJFn-12" target="YgnV4QaEvoiQ_fqZWJFn-13">
          <mxGeometry relative="1" as="geometry" />
        </mxCell>
        <mxCell id="YgnV4QaEvoiQ_fqZWJFn-12" value="x" style="shape=parallelogram;perimeter=parallelogramPerimeter;whiteSpace=wrap;html=1;fixedSize=1;" vertex="1" parent="1">
          <mxGeometry x="414" y="615" width="120" height="60" as="geometry" />
        </mxCell>
        <mxCell id="YgnV4QaEvoiQ_fqZWJFn-13" value="End" style="ellipse;whiteSpace=wrap;html=1;" vertex="1" parent="1">
          <mxGeometry x="640" y="605" width="120" height="80" as="geometry" />
        </mxCell>
      </root>
    </mxGraphModel>
  </diagram>
  <diagram id="Ok6l0iC_u4te0rehML2M" name="BT6">
    <mxGraphModel dx="1290" dy="534" grid="1" gridSize="10" guides="1" tooltips="1" connect="1" arrows="1" fold="1" page="1" pageScale="1" pageWidth="827" pageHeight="1169" math="0" shadow="0">
      <root>
        <mxCell id="0" />
        <mxCell id="1" parent="0" />
        <mxCell id="bXpgugc2Nka-r518x8Zj-3" style="edgeStyle=orthogonalEdgeStyle;rounded=0;orthogonalLoop=1;jettySize=auto;html=1;exitX=0.5;exitY=1;exitDx=0;exitDy=0;entryX=0.5;entryY=0;entryDx=0;entryDy=0;" parent="1" source="bXpgugc2Nka-r518x8Zj-1" target="bXpgugc2Nka-r518x8Zj-2" edge="1">
          <mxGeometry relative="1" as="geometry" />
        </mxCell>
        <mxCell id="bXpgugc2Nka-r518x8Zj-1" value="Start" style="ellipse;whiteSpace=wrap;html=1;" parent="1" vertex="1">
          <mxGeometry x="80" y="40" width="120" height="80" as="geometry" />
        </mxCell>
        <mxCell id="bXpgugc2Nka-r518x8Zj-5" style="edgeStyle=orthogonalEdgeStyle;rounded=0;orthogonalLoop=1;jettySize=auto;html=1;entryX=0.5;entryY=0;entryDx=0;entryDy=0;" parent="1" source="bXpgugc2Nka-r518x8Zj-2" target="bXpgugc2Nka-r518x8Zj-4" edge="1">
          <mxGeometry relative="1" as="geometry" />
        </mxCell>
        <mxCell id="bXpgugc2Nka-r518x8Zj-2" value="n=abc,d" style="rounded=0;whiteSpace=wrap;html=1;" parent="1" vertex="1">
          <mxGeometry x="80" y="180" width="120" height="60" as="geometry" />
        </mxCell>
        <mxCell id="bXpgugc2Nka-r518x8Zj-7" value="" style="edgeStyle=orthogonalEdgeStyle;rounded=0;orthogonalLoop=1;jettySize=auto;html=1;entryX=0;entryY=0.5;entryDx=0;entryDy=0;" parent="1" source="bXpgugc2Nka-r518x8Zj-4" target="bXpgugc2Nka-r518x8Zj-6" edge="1">
          <mxGeometry relative="1" as="geometry" />
        </mxCell>
        <mxCell id="bXpgugc2Nka-r518x8Zj-10" style="edgeStyle=orthogonalEdgeStyle;rounded=0;orthogonalLoop=1;jettySize=auto;html=1;exitX=1;exitY=0.5;exitDx=0;exitDy=0;entryX=0;entryY=0.5;entryDx=0;entryDy=0;" parent="1" source="bXpgugc2Nka-r518x8Zj-4" target="bXpgugc2Nka-r518x8Zj-9" edge="1">
          <mxGeometry relative="1" as="geometry" />
        </mxCell>
        <mxCell id="bXpgugc2Nka-r518x8Zj-12" style="edgeStyle=orthogonalEdgeStyle;rounded=0;orthogonalLoop=1;jettySize=auto;html=1;entryX=0;entryY=0.5;entryDx=0;entryDy=0;" parent="1" source="bXpgugc2Nka-r518x8Zj-4" target="bXpgugc2Nka-r518x8Zj-11" edge="1">
          <mxGeometry relative="1" as="geometry" />
        </mxCell>
        <mxCell id="bXpgugc2Nka-r518x8Zj-4" value="abc" style="shape=parallelogram;perimeter=parallelogramPerimeter;whiteSpace=wrap;html=1;fixedSize=1;" parent="1" vertex="1">
          <mxGeometry x="80" y="300" width="120" height="60" as="geometry" />
        </mxCell>
        <mxCell id="bXpgugc2Nka-r518x8Zj-16" style="edgeStyle=orthogonalEdgeStyle;rounded=0;orthogonalLoop=1;jettySize=auto;html=1;exitX=1;exitY=0.5;exitDx=0;exitDy=0;entryX=0.5;entryY=0;entryDx=0;entryDy=0;" parent="1" source="bXpgugc2Nka-r518x8Zj-6" target="bXpgugc2Nka-r518x8Zj-13" edge="1">
          <mxGeometry relative="1" as="geometry" />
        </mxCell>
        <mxCell id="bXpgugc2Nka-r518x8Zj-6" value="a=d" style="whiteSpace=wrap;html=1;" parent="1" vertex="1">
          <mxGeometry x="310" y="160" width="120" height="60" as="geometry" />
        </mxCell>
        <mxCell id="bXpgugc2Nka-r518x8Zj-18" style="edgeStyle=orthogonalEdgeStyle;rounded=0;orthogonalLoop=1;jettySize=auto;html=1;exitX=1;exitY=0.5;exitDx=0;exitDy=0;entryX=0.5;entryY=1;entryDx=0;entryDy=0;" parent="1" source="bXpgugc2Nka-r518x8Zj-9" target="bXpgugc2Nka-r518x8Zj-13" edge="1">
          <mxGeometry relative="1" as="geometry" />
        </mxCell>
        <mxCell id="bXpgugc2Nka-r518x8Zj-9" value="c=d" style="rounded=0;whiteSpace=wrap;html=1;" parent="1" vertex="1">
          <mxGeometry x="310" y="460" width="120" height="60" as="geometry" />
        </mxCell>
        <mxCell id="bXpgugc2Nka-r518x8Zj-17" style="edgeStyle=orthogonalEdgeStyle;rounded=0;orthogonalLoop=1;jettySize=auto;html=1;entryX=0;entryY=0.5;entryDx=0;entryDy=0;" parent="1" source="bXpgugc2Nka-r518x8Zj-11" target="bXpgugc2Nka-r518x8Zj-13" edge="1">
          <mxGeometry relative="1" as="geometry" />
        </mxCell>
        <mxCell id="bXpgugc2Nka-r518x8Zj-11" value="a=c" style="rounded=0;whiteSpace=wrap;html=1;" parent="1" vertex="1">
          <mxGeometry x="310" y="300" width="120" height="60" as="geometry" />
        </mxCell>
        <mxCell id="bXpgugc2Nka-r518x8Zj-15" style="edgeStyle=orthogonalEdgeStyle;rounded=0;orthogonalLoop=1;jettySize=auto;html=1;exitX=1;exitY=0.5;exitDx=0;exitDy=0;entryX=0;entryY=0.5;entryDx=0;entryDy=0;" parent="1" source="bXpgugc2Nka-r518x8Zj-13" target="bXpgugc2Nka-r518x8Zj-14" edge="1">
          <mxGeometry relative="1" as="geometry" />
        </mxCell>
        <mxCell id="bXpgugc2Nka-r518x8Zj-13" value="n" style="shape=parallelogram;perimeter=parallelogramPerimeter;whiteSpace=wrap;html=1;fixedSize=1;" parent="1" vertex="1">
          <mxGeometry x="530" y="300" width="120" height="60" as="geometry" />
        </mxCell>
        <mxCell id="bXpgugc2Nka-r518x8Zj-14" value="End" style="ellipse;whiteSpace=wrap;html=1;" parent="1" vertex="1">
          <mxGeometry x="707" y="290" width="120" height="80" as="geometry" />
        </mxCell>
      </root>
    </mxGraphModel>
  </diagram>
</mxfile>
